<svg width="145" height="31" viewBox="0 0 145 31" fill="none" xmlns="http://www.w3.org/2000/svg">
<path d="M0.565 30H8.935V8.22H8.98L28.285 30H36.835V0.389998H28.465V18.21H28.42L12.625 0.389998H0.565V30ZM42.1615 30H50.8015V18.84H66.2365V13.35H50.8015V6.78H69.3865V0.389998H42.1615V30ZM83.47 30H92.11V6.78H103.765V0.389998H71.815V6.78H83.47V30ZM116.776 30.45C128.701 30.45 131.221 26.49 131.221 22.89C131.221 20.64 130.231 18.885 128.161 17.94C126.316 17.085 123.301 16.815 119.971 16.635C117.001 16.455 114.706 16.455 113.176 16.23C111.556 15.96 111.061 15.51 111.061 14.655C111.061 13.26 112.591 12.36 117.001 12.36C121.501 12.36 122.266 13.665 122.311 15.285H129.871C129.871 10.965 127.441 7.32 116.776 7.32C107.866 7.32 103.051 10.47 103.051 15.15C103.051 17.04 103.771 18.705 105.436 19.695C107.101 20.685 110.251 21.18 114.616 21.36C117.046 21.495 119.656 21.495 121.366 21.72C122.806 21.9 123.211 22.485 123.211 23.16C123.211 24.51 122.131 25.41 116.776 25.41C111.241 25.41 110.656 24.06 110.611 22.62H103.051C103.051 25.995 104.851 30.45 116.776 30.45ZM136.519 30H144.529V22.89H136.519V30Z" fill="white"/>
</svg>
